<?xml version="1.0" encoding="UTF-8"?>
<svg version="1.1" xmlns="http://www.w3.org/2000/svg" width="160" height="160">
<path d="M0 0 C7.92 0 15.84 0 24 0 C24 2.31 24 4.62 24 7 C31.26 7 38.52 7 46 7 C46 11.95 46 16.9 46 22 C49.96 22 53.92 22 58 22 C58 17.05 58 12.1 58 7 C65.26 7 72.52 7 80 7 C80 4.69 80 2.38 80 0 C87.92 0 95.84 0 104 0 C104 4.95 104 9.9 104 15 C106.31 15 108.62 15 111 15 C111 19.62 111 24.24 111 29 C115.95 29 120.9 29 126 29 C126 44.18 126 59.36 126 75 C123.69 75 121.38 75 119 75 C119 77.64 119 80.28 119 83 C116.36 83 113.72 83 111 83 C111 87.62 111 92.24 111 97 C104.07 97 97.14 97 90 97 C90 98.65 90 100.3 90 102 C94.62 102 99.24 102 104 102 C104 109.92 104 117.84 104 126 C96.08 126 88.16 126 80 126 C80 121.38 80 116.76 80 112 C72.74 112 65.48 112 58 112 C58 107.05 58 102.1 58 97 C54.04 97 50.08 97 46 97 C46 101.95 46 106.9 46 112 C38.74 112 31.48 112 24 112 C24 116.62 24 121.24 24 126 C16.08 126 8.16 126 0 126 C0 118.08 0 110.16 0 102 C4.62 102 9.24 102 14 102 C14 100.35 14 98.7 14 97 C7.07 97 0.14 97 -7 97 C-7 92.38 -7 87.76 -7 83 C-9.64 83 -12.28 83 -15 83 C-15 80.36 -15 77.72 -15 75 C-17.31 75 -19.62 75 -22 75 C-22 59.82 -22 44.64 -22 29 C-17.05 29 -12.1 29 -7 29 C-7 24.38 -7 19.76 -7 15 C-4.69 15 -2.38 15 0 15 C0 10.05 0 5.1 0 0 Z " fill="#1D1B1E" transform="translate(28,20)"/>
<path d="M0 0 C2.97 0 5.94 0 9 0 C9 4.95 9 9.9 9 15 C11.31 15 13.62 15 16 15 C16 17.31 16 19.62 16 22 C18.31 22 20.62 22 23 22 C23 24.64 23 27.28 23 30 C25.31 30 27.62 30 30 30 C30 37.26 30 44.52 30 52 C34.62 52 39.24 52 44 52 C44 42.43 44 32.86 44 23 C46.64 23 49.28 23 52 23 C52 32.57 52 42.14 52 52 C49.69 52 47.38 52 45 52 C45 54.64 45 57.28 45 60 C40.05 60 35.1 60 30 60 C30 64.95 30 69.9 30 75 C25.38 75 20.76 75 16 75 C16 79.62 16 84.24 16 89 C10.72 89 5.44 89 0 89 C0 84.38 0 79.76 0 75 C-9.24 75 -18.48 75 -28 75 C-28 79.62 -28 84.24 -28 89 C-32.95 89 -37.9 89 -43 89 C-43 84.05 -43 79.1 -43 74 C-47.95 74 -52.9 74 -58 74 C-58 69.38 -58 64.76 -58 60 C-62.95 60 -67.9 60 -73 60 C-73 57.69 -73 55.38 -73 53 C-75.31 53 -77.62 53 -80 53 C-80 43.1 -80 33.2 -80 23 C-77.36 23 -74.72 23 -72 23 C-72 32.57 -72 42.14 -72 52 C-67.38 52 -62.76 52 -58 52 C-58 44.74 -58 37.48 -58 30 C-55.69 30 -53.38 30 -51 30 C-51 27.36 -51 24.72 -51 22 C-48.69 22 -46.38 22 -44 22 C-44 19.69 -44 17.38 -44 15 C-41.36 15 -38.72 15 -36 15 C-36 10.38 -36 5.76 -36 1 C-33.36 1 -30.72 1 -28 1 C-28 5.62 -28 10.24 -28 15 C-18.76 15 -9.52 15 0 15 C0 10.05 0 5.1 0 0 Z " fill="#8464B2" transform="translate(94,35)"/>
<path d="M0 0 C7.92 0 15.84 0 24 0 C24 2.31 24 4.62 24 7 C31.26 7 38.52 7 46 7 C46 11.95 46 16.9 46 22 C49.96 22 53.92 22 58 22 C58 17.05 58 12.1 58 7 C65.26 7 72.52 7 80 7 C80 4.69 80 2.38 80 0 C87.92 0 95.84 0 104 0 C104 4.95 104 9.9 104 15 C106.31 15 108.62 15 111 15 C111 19.62 111 24.24 111 29 C115.95 29 120.9 29 126 29 C126 43.85 126 58.7 126 74 C125.67 74 125.34 74 125 74 C125 59.81 125 45.62 125 31 C120.05 31 115.1 31 110 31 C110 26.05 110 21.1 110 16 C107.69 16 105.38 16 103 16 C101.95023036 12.85069107 101.89868405 10.61185544 101.9375 7.3125 C101.94652344 6.31863281 101.95554687 5.32476562 101.96484375 4.30078125 C101.97644531 3.54152344 101.98804688 2.78226563 102 2 C101.23429687 2.24556641 101.23429687 2.24556641 100.453125 2.49609375 C97.18708172 3.16698481 94.0813253 3.0933456 90.75 3.0625 C89.48671875 3.05347656 88.2234375 3.04445313 86.921875 3.03515625 C85.95765625 3.02355469 84.9934375 3.01195312 84 3 C83.34 4.98 82.68 6.96 82 9 C72.1 9.495 72.1 9.495 62 10 C60.99740493 13.00778521 60.69685358 15.53820647 60.4375 18.6875 C60.31181641 20.17830078 60.31181641 20.17830078 60.18359375 21.69921875 C60.12300781 22.45847656 60.06242187 23.21773437 60 24 C57.52076199 24.02685095 55.0418116 24.04676547 52.5625 24.0625 C51.85544922 24.07087891 51.14839844 24.07925781 50.41992188 24.08789062 C48.61306441 24.09653588 46.80612397 24.05220011 45 24 C43.12175109 22.12175109 43.60897603 18.96064724 43.4375 16.4375 C43.35371094 15.23996094 43.26992187 14.04242188 43.18359375 12.80859375 C43.12300781 11.88175781 43.06242187 10.95492188 43 10 C42.39937744 9.97494385 41.79875488 9.9498877 41.17993164 9.92407227 C38.47388563 9.8084472 35.76821717 9.68557064 33.0625 9.5625 C32.11697266 9.52318359 31.17144531 9.48386719 30.19726562 9.44335938 C29.29814453 9.40146484 28.39902344 9.35957031 27.47265625 9.31640625 C26.64000244 9.27974854 25.80734863 9.24309082 24.94946289 9.20532227 C23 9 23 9 22 8 C21.95919217 6.00041636 21.95745644 3.99954746 22 2 C19.02046641 2.14017826 16.04150696 2.28686342 13.0625 2.4375 C11.78729492 2.49647461 11.78729492 2.49647461 10.48632812 2.55664062 C9.67744141 2.59853516 8.86855469 2.64042969 8.03515625 2.68359375 C7.2862915 2.72025146 6.53742676 2.75690918 5.76586914 2.79467773 C3.97538674 2.81771063 3.97538674 2.81771063 3 4 C2.76572222 6.01594582 2.58663876 8.038474 2.4375 10.0625 C2.35371094 11.16722656 2.26992188 12.27195312 2.18359375 13.41015625 C2.09271484 14.69212891 2.09271484 14.69212891 2 16 C-0.64 16 -3.28 16 -6 16 C-6 20.95 -6 25.9 -6 31 C-10.95 31 -15.9 31 -21 31 C-21 45.19 -21 59.38 -21 74 C-21.33 74 -21.66 74 -22 74 C-22 59.15 -22 44.3 -22 29 C-17.05 29 -12.1 29 -7 29 C-7 24.38 -7 19.76 -7 15 C-4.69 15 -2.38 15 0 15 C0 10.05 0 5.1 0 0 Z " fill="#5B4546" transform="translate(28,20)"/>
<path d="M0 0 C4.62 0 9.24 0 14 0 C14 6.93 14 13.86 14 21 C9.38 21 4.76 21 0 21 C0 14.07 0 7.14 0 0 Z " fill="#19181B" transform="translate(95,73)"/>
<path d="M0 0 C4.29 0 8.58 0 13 0 C13 6.93 13 13.86 13 21 C8.71 21 4.42 21 0 21 C0 14.07 0 7.14 0 0 Z " fill="#151516" transform="translate(52,73)"/>
<path d="M0 0 C2.64 0 5.28 0 8 0 C8 9.57 8 19.14 8 29 C2.77619029 29.74625853 -1.7234602 30.10864195 -6.9375 30.0625 C-7.62134766 30.05798828 -8.30519531 30.05347656 -9.00976562 30.04882812 C-10.67321604 30.0371956 -12.3366205 30.01926694 -14 30 C-14 29.67 -14 29.34 -14 29 C-9.38 29 -4.76 29 0 29 C0 19.43 0 9.86 0 0 Z " fill="#8E6EBC" transform="translate(138,58)"/>
<path d="M0 0 C2.64 0 5.28 0 8 0 C8 9.57 8 19.14 8 29 C5.36 29 2.72 29 0 29 C0 19.43 0 9.86 0 0 Z " fill="#8E6DBC" transform="translate(14,58)"/>
<path d="M0 0 C5.28 0 10.56 0 16 0 C16 2.64 16 5.28 16 8 C13.69 8 11.38 8 9 8 C9 10.31 9 12.62 9 15 C6.03 15 3.06 15 0 15 C0 10.05 0 5.1 0 0 Z " fill="#9677C3" transform="translate(28,43)"/>
<path d="M0 0 C5.28 0 10.56 0 16 0 C16 4.95 16 9.9 16 15 C13.36 15 10.72 15 8 15 C8 12.69 8 10.38 8 8 C5.36 8 2.72 8 0 8 C0 5.36 0 2.72 0 0 Z " fill="#9777C4" transform="translate(116,43)"/>
<path d="M0 0 C2.64 0 5.28 0 8 0 C8 4.62 8 9.24 8 14 C7.67 14 7.34 14 7 14 C7 9.71 7 5.42 7 1 C5.68 1.33 4.36 1.66 3 2 C2.95101562 2.84304687 2.90203125 3.68609375 2.8515625 4.5546875 C2.77679688 5.65039062 2.70203125 6.74609375 2.625 7.875 C2.55539063 8.96554688 2.48578125 10.05609375 2.4140625 11.1796875 C2 14 2 14 0 16 C-2.78149414 16.24291992 -2.78149414 16.24291992 -6.28515625 16.23046875 C-7.53748047 16.22853516 -8.78980469 16.22660156 -10.08007812 16.22460938 C-12.05137695 16.20624023 -12.05137695 16.20624023 -14.0625 16.1875 C-15.38056641 16.18685547 -16.69863281 16.18621094 -18.05664062 16.18554688 C-27.85990877 16.14009123 -27.85990877 16.14009123 -29 15 C-29.04063832 13.33382885 -29.042721 11.66611905 -29 10 C-28.67 11.32 -28.34 12.64 -28 14 C-18.76 14 -9.52 14 0 14 C0 9.38 0 4.76 0 0 Z " fill="#9A7DC5" transform="translate(94,36)"/>
<path d="M0 0 C0.66 0 1.32 0 2 0 C2 4.62 2 9.24 2 14 C9.26 14 16.52 14 24 14 C24 16.31 24 18.62 24 21 C23 22 23 22 19.83984375 22.09765625 C16.2265625 22.06510417 12.61328125 22.03255208 9 22 C9 28.93 9 35.86 9 43 C8.67 43 8.34 43 8 43 C8 35.41 8 27.82 8 20 C12.62 20 17.24 20 22 20 C22 18.35 22 16.7 22 15 C15.07 15 8.14 15 1 15 C0.67 10.05 0.34 5.1 0 0 Z " fill="#452D2D" transform="translate(20,102)"/>
<path d="M0 0 C6.15234375 -0.09765625 6.15234375 -0.09765625 8 0 C9 1 9 1 9.09765625 2.84765625 C9.04882812 5.92382812 9.04882812 5.92382812 9 9 C6.03 9 3.06 9 0 9 C0 6.03 0 3.06 0 0 Z " fill="#715793" transform="translate(116,132)"/>
<path d="M0 0 C0 2.31 0 4.62 0 7 C7.26 7 14.52 7 22 7 C22 7.33 22 7.66 22 8 C14.08 8 6.16 8 -2 8 C-2 6.02 -2 4.04 -2 2 C-4.97953359 2.14017826 -7.95849304 2.28686342 -10.9375 2.4375 C-12.21270508 2.49647461 -12.21270508 2.49647461 -13.51367188 2.55664062 C-14.32255859 2.59853516 -15.13144531 2.64042969 -15.96484375 2.68359375 C-16.7137085 2.72025146 -17.46257324 2.75690918 -18.23413086 2.79467773 C-20.02461326 2.81771063 -20.02461326 2.81771063 -21 4 C-21.23427778 6.01594582 -21.41336124 8.038474 -21.5625 10.0625 C-21.64628906 11.16722656 -21.73007812 12.27195312 -21.81640625 13.41015625 C-21.87699219 14.26480469 -21.93757813 15.11945312 -22 16 C-22.33 16 -22.66 16 -23 16 C-23 11.05 -23 6.1 -23 1 C-19.35417893 0.83306134 -15.70834403 0.66643582 -12.0625 0.5 C-11.02158203 0.45230469 -9.98066406 0.40460937 -8.90820312 0.35546875 C-7.91884766 0.31035156 -6.92949219 0.26523437 -5.91015625 0.21875 C-4.99371338 0.17685547 -4.07727051 0.13496094 -3.13305664 0.09179688 C-1 0 -1 0 0 0 Z " fill="#433637" transform="translate(52,20)"/>
<path d="M0 0 C2.64 0 5.28 0 8 0 C8 2.97 8 5.94 8 9 C5.36 9 2.72 9 0 9 C0 6.03 0 3.06 0 0 Z " fill="#785AA1" transform="translate(36,132)"/>
<path d="M0 0 C2.64 0 5.28 0 8 0 C8 2.64 8 5.28 8 8 C5.36 8 2.72 8 0 8 C0 5.36 0 2.72 0 0 Z " fill="#A688D2" transform="translate(36,28)"/>
<path d="M0 0 C2.64 0 5.28 0 8 0 C8 2.64 8 5.28 8 8 C5.36 8 2.72 8 0 8 C0 5.36 0 2.72 0 0 Z " fill="#9F80CD" transform="translate(117,28)"/>
<path d="M0 0 C2.64 0 5.28 0 8 0 C7.67 0.99 7.34 1.98 7 3 C7 2.34 7 1.68 7 1 C5.35 1.33 3.7 1.66 2 2 C1.67 6.29 1.34 10.58 1 15 C-0.98 15.66 -2.96 16.32 -5 17 C-6.42055068 19.00136244 -6.42055068 19.00136244 -7 21 C-7 18.69 -7 16.38 -7 14 C-4.69 14 -2.38 14 0 14 C0 9.38 0 4.76 0 0 Z " fill="#A686D4" transform="translate(58,36)"/>
<path d="M0 0 C0.87454834 0.00523682 1.74909668 0.01047363 2.65014648 0.01586914 C3.59438477 0.0190918 4.53862305 0.02231445 5.51147461 0.02563477 C6.50469727 0.03401367 7.49791992 0.04239258 8.52124023 0.05102539 C9.51833008 0.05553711 10.51541992 0.06004883 11.54272461 0.06469727 C14.0147551 0.07652516 16.48675496 0.09446124 18.95874023 0.11352539 C18.95874023 4.07352539 18.95874023 8.03352539 18.95874023 12.11352539 C18.62874023 12.11352539 18.29874023 12.11352539 17.95874023 12.11352539 C17.95874023 8.48352539 17.95874023 4.85352539 17.95874023 1.11352539 C16.63874023 1.44352539 15.31874023 1.77352539 13.95874023 2.11352539 C11.54294964 2.18184526 9.12539311 2.19840181 6.70874023 2.17602539 C5.44545898 2.16700195 4.18217773 2.15797852 2.88061523 2.14868164 C1.91639648 2.13708008 0.95217773 2.12547852 -0.04125977 2.11352539 C-0.70125977 4.09352539 -1.36125977 6.07352539 -2.04125977 8.11352539 C-2.37125977 8.11352539 -2.70125977 8.11352539 -3.04125977 8.11352539 C-3.083677 5.78057764 -3.08218914 3.44649972 -3.04125977 1.11352539 C-2.04125977 0.11352539 -2.04125977 0.11352539 0 0 Z " fill="#3E4142" transform="translate(112.041259765625,20.886474609375)"/>
<path d="M0 0 C1.65 0 3.3 0 5 0 C5 1.98 5 3.96 5 6 C3.35 6 1.7 6 0 6 C0 4.02 0 2.04 0 0 Z " fill="#9D7CCD" transform="translate(37,29)"/>
<path d="M0 0 C1.65 0 3.3 0 5 0 C5 1.65 5 3.3 5 5 C3.35 5 1.7 5 0 5 C0 3.35 0 1.7 0 0 Z " fill="#7654A4" transform="translate(118,134)"/>
<path d="M0 0 C2.31 0 4.62 0 7 0 C7 0.66 7 1.32 7 2 C6.21625 2.0825 5.4325 2.165 4.625 2.25 C1.85250896 2.72806339 1.85250896 2.72806339 0.6875 5.0625 C0.3471875 6.0215625 0.3471875 6.0215625 0 7 C0 4.69 0 2.38 0 0 Z " fill="#9C7DC8" transform="translate(51,50)"/>
</svg>
